{"title":"Million Ways To Die In The West 2014 READNFO CAM XViD-BL4CKP34RL","uid":10310841,"size":1513495997,"categoryP":"video","categoryS":"movies","magnet":"?xt=urn:btih:9929625f8a0923724e27d9d4e69b279b8792bfc8&amp;dn=Million+Ways+To+Die+In+The+West+2014+READNFO+CAM+XViD-BL4CKP34RL&amp;tr=udp%3A%2F%2Ftracker.openbittorrent.com%3A80&amp;tr=udp%3A%2F%2Fopen.demonii.com%3A1337&amp;tr=udp%3A%2F%2Ftracker.coppersurfer.tk%3A6969&amp;tr=udp%3A%2F%2Fexodus.desync.com%3A6969","seeders":2,"leechers":0,"uploader":"lokioddin","files":4,"time":1402178328,"description":"SilverTorrent - Clean And Verified Torrents Download\n\n\n\nMillion Ways To Die In The West 2014 READNFO CAM XViD-BL4CKP34RL\n\n******************************************************************************************\n                 Million.Ways.To.Die.In.The.West.2014.CAM.XViD-BL4CKP34RL                  \n******************************************************************************************\n\nRipper ...........: J4CKSP4RR0W          IMDB Rating.......: 6.4/10                            \nVideo Codec.......: XViD                 Release Date......: 7 June 2014\nAudio Codec.......: mp3                  Theatre Date......: 30 May 2014  \nAudio Bitrate.....: 128 kbps             Runtime...........: 1hr 49min 14sec\nSubtitles.........: n/a                  Language..........: ENGLISH\nResolution........: 720x352              IMDb URL..........: http://www.imdb.com/title/tt2557490/\n\n\nDETAILS:\n\n\nFormat                                   : AVI\nFormat/Info                              : Audio Video Interleave\nFile size                                : 1.37 GiB\nDuration                                 : 1h 49mn\nOverall bit rate                         : 1 797 Kbps\nWriting library                          : VirtualDub build 32839/release\n\nVideo\nID                                       : 0\nFormat                                   : MPEG-4 Visual\nFormat profile                           : Advanced Simple@L5\nFormat settings, BVOP                    : 2\nFormat settings, QPel                    : Yes\nFormat settings, GMC                     : No warppoints\nFormat settings, Matrix                  : Default (H.263)\nMuxing mode                              : Packed bitstream\nCodec ID                                 : XVID\nCodec ID/Hint                            : XviD\nDuration                                 : 1h 49mn\nBit rate                                 : 1 658 Kbps\nWidth                                    : 720 pixels\nHeight                                   : 352 pixels\nDisplay aspect ratio                     : 2.045\nFrame rate                               : 29.970 fps\nColor space                              : YUV\nChroma subsampling                       : 4:2:0\nBit depth                                : 8 bits\nScan type                                : Interlaced\nScan order                               : Bottom Field First\nCompression mode                         : Lossy\nBits/(Pixel*Frame)                       : 0.218\nStream size                              : 1.26 GiB (92%)\nWriting library                          : XviD 65\n\nAudio\nID                                       : 1\nFormat                                   : MPEG Audio\nFormat version                           : Version 1\nFormat profile                           : Layer 3\nMode                                     : Joint stereo\nMode extension                           : MS Stereo\nCodec ID                                 : 55\nCodec ID/Hint                            : MP3\nDuration                                 : 1h 49mn\nBit rate mode                            : Constant\nBit rate                                 : 128 Kbps\nChannel(s)                               : 2 channels\nSampling rate                            : 48.0 KHz\nCompression mode                         : Lossy\nStream size                              : 100 MiB (7%)\nAlignment                                : Split accross interleaves\nInterleave, duration                     : 33 ms (1.00 video frame)\n\n &lt;a href=&quot;\nhttp://i.imgur.com/yYrsHuW.jpg&quot; rel=&quot;nofollow&quot; target=&quot;_NEW&quot;&gt;\nhttp://i.imgur.com/yYrsHuW.jpg&lt;/a&gt;\n &lt;a href=&quot;\nhttp://i.imgur.com/KjU37MA.jpg&quot; rel=&quot;nofollow&quot; target=&quot;_NEW&quot;&gt;\nhttp://i.imgur.com/KjU37MA.jpg&lt;/a&gt;\n &lt;a href=&quot;\nhttp://i.imgur.com/VuciUvi.jpg[/img]&quot; rel=&quot;nofollow&quot; target=&quot;_NEW&quot;&gt;\nhttp://i.imgur.com/VuciUvi.jpg[/img]&lt;/a&gt;\n\n\nSilverTorrent - Clean And Verified Torrents Download\n","torrent":{"xt":"urn:btih:9929625f8a0923724e27d9d4e69b279b8792bfc8","amp;dn":"Million+Ways+To+Die+In+The+West+2014+READNFO+CAM+XViD-BL4CKP34RL","amp;tr":["udp%3A%2F%2Ftracker.openbittorrent.com%3A80","udp%3A%2F%2Fopen.demonii.com%3A1337","udp%3A%2F%2Ftracker.coppersurfer.tk%3A6969","udp%3A%2F%2Fexodus.desync.com%3A6969"],"infoHash":"9929625f8a0923724e27d9d4e69b279b8792bfc8","infoHashBuffer":{"type":"Buffer","data":[153,41,98,95,138,9,35,114,78,39,217,212,230,155,39,155,135,146,191,200]},"announce":[],"urlList":[]}}